<?xml version="1.0" standalone="no"?>
<!DOCTYPE svg PUBLIC "-//W3C//DTD SVG 1.1//EN" "http://www.w3.org/Graphics/SVG/1.1/DTD/svg11.dtd">
<svg width="800" height="600" version="1.1" xmlns="http://www.w3.org/2000/svg">
<rect width="800" height="600" x="0" y="0" style="fill:rgb(238,238,238);stroke:none"/>
<rect width="800" height="600" x="0" y="0" style="fill:rgb(255,255,255);stroke:none"/>
<text x="2" y="566" fill="rgb(0,0,0)" font-family="Arial" font-size="12">0</text>
<text x="2" y="499" fill="rgb(0,0,0)" font-family="Arial" font-size="12">5000</text>
<text x="2" y="432" fill="rgb(0,0,0)" font-family="Arial" font-size="12">10000</text>
<text x="2" y="365" fill="rgb(0,0,0)" font-family="Arial" font-size="12">15000</text>
<text x="2" y="298" fill="rgb(0,0,0)" font-family="Arial" font-size="12">20000</text>
<text x="2" y="231" fill="rgb(0,0,0)" font-family="Arial" font-size="12">25000</text>
<text x="2" y="163" fill="rgb(0,0,0)" font-family="Arial" font-size="12">30000</text>
<text x="2" y="96" fill="rgb(0,0,0)" font-family="Arial" font-size="12">35000</text>
<text x="292" y="30" fill="rgb(0,0,0)" font-family="Arial" font-size="12">Quality score distribution over all sequences</text>
<line x1="40" y1="560" x2="790" y2="560" stroke="rgb(0,0,0)" stroke-width="1"/>
<line x1="40" y1="560" x2="40" y2="40" stroke="rgb(0,0,0)" stroke-width="1"/>
<text x="295" y="595" fill="rgb(0,0,0)" font-family="Arial" font-size="12">Mean Sequence Quality (Phred Score)</text>
<text x="126" y="575" fill="rgb(0,0,0)" font-family="Arial" font-size="12">35</text>
<rect width="187" height="520" x="227" y="40" style="fill:rgb(230,230,230);stroke:none"/>
<text x="313" y="575" fill="rgb(0,0,0)" font-family="Arial" font-size="12">36</text>
<text x="500" y="575" fill="rgb(0,0,0)" font-family="Arial" font-size="12">37</text>
<rect width="187" height="520" x="601" y="40" style="fill:rgb(230,230,230);stroke:none"/>
<text x="687" y="575" fill="rgb(0,0,0)" font-family="Arial" font-size="12">38</text>
<line x1="40" y1="560" x2="790" y2="560" stroke="rgb(180,180,180)" stroke-width="1"/>
<line x1="40" y1="493" x2="790" y2="493" stroke="rgb(180,180,180)" stroke-width="1"/>
<line x1="40" y1="426" x2="790" y2="426" stroke="rgb(180,180,180)" stroke-width="1"/>
<line x1="40" y1="359" x2="790" y2="359" stroke="rgb(180,180,180)" stroke-width="1"/>
<line x1="40" y1="292" x2="790" y2="292" stroke="rgb(180,180,180)" stroke-width="1"/>
<line x1="40" y1="225" x2="790" y2="225" stroke="rgb(180,180,180)" stroke-width="1"/>
<line x1="40" y1="157" x2="790" y2="157" stroke="rgb(180,180,180)" stroke-width="1"/>
<line x1="40" y1="90" x2="790" y2="90" stroke="rgb(180,180,180)" stroke-width="1"/>
<line x1="133" y1="557" x2="320" y2="213" stroke="rgb(136,34,85)" stroke-width="1"/>
<line x1="320" y1="213" x2="507" y2="40" stroke="rgb(136,34,85)" stroke-width="1"/>
<line x1="507" y1="40" x2="694" y2="558" stroke="rgb(136,34,85)" stroke-width="1"/>
<rect width="156" height="23" x="634" y="40" style="fill:rgb(255,255,255);stroke:none"/>
<rect width="156" height="23" x="634" y="40" rx="0" ry="0" style="fill:none;stroke-width:1;stroke:rgb(192,192,192)"/>
<text x="637" y="55" fill="rgb(136,34,85)" font-family="Arial" font-size="12" font-weight="bold">Average Quality per read</text>
</svg>
