<?xml version="1.0" standalone="no"?>
<!DOCTYPE svg PUBLIC "-//W3C//DTD SVG 1.1//EN" "http://www.w3.org/Graphics/SVG/1.1/DTD/svg11.dtd">
<svg width="800" height="600" version="1.1" xmlns="http://www.w3.org/2000/svg">
<rect width="800" height="600" x="0" y="0" style="fill:rgb(238,238,238);stroke:none"/>
<rect width="800" height="600" x="0" y="0" style="fill:rgb(255,255,255);stroke:none"/>
<text x="2" y="566" fill="rgb(0,0,0)" font-family="Arial" font-size="12">0</text>
<text x="2" y="486" fill="rgb(0,0,0)" font-family="Arial" font-size="12">10000</text>
<text x="2" y="406" fill="rgb(0,0,0)" font-family="Arial" font-size="12">20000</text>
<text x="2" y="326" fill="rgb(0,0,0)" font-family="Arial" font-size="12">30000</text>
<text x="2" y="246" fill="rgb(0,0,0)" font-family="Arial" font-size="12">40000</text>
<text x="2" y="166" fill="rgb(0,0,0)" font-family="Arial" font-size="12">50000</text>
<text x="2" y="86" fill="rgb(0,0,0)" font-family="Arial" font-size="12">60000</text>
<text x="272" y="30" fill="rgb(0,0,0)" font-family="Arial" font-size="12">Distribution of sequence lengths over all sequences</text>
<line x1="40" y1="560" x2="790" y2="560" stroke="rgb(0,0,0)" stroke-width="1"/>
<line x1="40" y1="560" x2="40" y2="40" stroke="rgb(0,0,0)" stroke-width="1"/>
<text x="340" y="595" fill="rgb(0,0,0)" font-family="Arial" font-size="12">Sequence Length (bp)</text>
<text x="155" y="575" fill="rgb(0,0,0)" font-family="Arial" font-size="12">149</text>
<rect width="250" height="520" x="290" y="40" style="fill:rgb(230,230,230);stroke:none"/>
<text x="405" y="575" fill="rgb(0,0,0)" font-family="Arial" font-size="12">150</text>
<text x="655" y="575" fill="rgb(0,0,0)" font-family="Arial" font-size="12">151</text>
<line x1="40" y1="560" x2="790" y2="560" stroke="rgb(180,180,180)" stroke-width="1"/>
<line x1="40" y1="480" x2="790" y2="480" stroke="rgb(180,180,180)" stroke-width="1"/>
<line x1="40" y1="400" x2="790" y2="400" stroke="rgb(180,180,180)" stroke-width="1"/>
<line x1="40" y1="320" x2="790" y2="320" stroke="rgb(180,180,180)" stroke-width="1"/>
<line x1="40" y1="240" x2="790" y2="240" stroke="rgb(180,180,180)" stroke-width="1"/>
<line x1="40" y1="160" x2="790" y2="160" stroke="rgb(180,180,180)" stroke-width="1"/>
<line x1="40" y1="80" x2="790" y2="80" stroke="rgb(180,180,180)" stroke-width="1"/>
<line x1="165" y1="560" x2="415" y2="40" stroke="rgb(136,34,85)" stroke-width="1"/>
<line x1="415" y1="40" x2="665" y2="560" stroke="rgb(136,34,85)" stroke-width="1"/>
<rect width="110" height="23" x="680" y="40" style="fill:rgb(255,255,255);stroke:none"/>
<rect width="110" height="23" x="680" y="40" rx="0" ry="0" style="fill:none;stroke-width:1;stroke:rgb(192,192,192)"/>
<text x="683" y="55" fill="rgb(136,34,85)" font-family="Arial" font-size="12" font-weight="bold">Sequence Length</text>
</svg>
